<?xml version="1.0" encoding="UTF-8"?>
<svg id="Capa_1" data-name="Capa 1" xmlns="http://www.w3.org/2000/svg" viewBox="0 0 161.89 94.93">
  <defs>
    <style>
      .cls-1 {
        fill: #fff;
      }

      .cls-2 {
        fill: #43b6bf;
      }

      .cls-3 {
        fill: none;
      }
    </style>
  </defs>
  <g>
    <path class="cls-1" d="m89.11,73.35c-4.26,0-7.36-2.63-7.36-7.2s3.36-7.17,7.45-7.17,6.92,2.72,6.92,6.75c0,.67-.06,1.48-.06,1.48h-9.83c.2,1.99,1.71,2.88,3.53,2.88s3.36-.78,4.14-1.32l1.76,2.32c-.45.34-2.27,2.24-6.55,2.24Zm0-11.45c-1.85,0-2.8,1.46-2.86,2.77h5.68c-.03-1.26-.95-2.77-2.83-2.77Z"/>
    <path class="cls-1" d="m102.35,59.24l-.03,1.76c1.01-1.2,2.55-2.02,4.65-2.02,3.98,0,6.5,3.11,6.5,7.17s-2.52,7.2-6.52,7.2c-2.04,0-3.5-.76-4.37-2.04v6.8h-4.48v-18.87h4.26Zm6.55,6.86c0-2.13-1.32-3.58-3.25-3.58s-3.22,1.46-3.22,3.58,1.32,3.58,3.22,3.58,3.25-1.46,3.25-3.58Z"/>
    <path class="cls-1" d="m119.55,73.35c-2.44,0-5.01-1.32-5.01-4.4s2.83-4.12,5.38-4.23l3.47-.14v-.31c0-1.46-1.04-2.21-2.83-2.21s-3.53.78-4.23,1.23l-1.18-2.91c1.18-.59,3.33-1.4,5.91-1.4s4.06.59,5.15,1.6c1.06,1.01,1.65,2.35,1.65,4.68v7.78h-4.28l-.08-1.46c-.59.59-1.71,1.76-3.95,1.76Zm-.53-4.56c0,1.06.87,1.71,2.1,1.71s2.02-.78,2.3-1.26v-2.27l-2.21.14c-1.37.06-2.18.64-2.18,1.68Z"/>
    <path class="cls-1" d="m132.17,74.72c.5,0,.98,0,1.34-.9l.5-1.2-5.46-13.38h4.68l3.14,8.88,3.11-8.88h4.62l-6.16,15.12c-1.01,2.46-2.13,3.98-4.48,3.98s-3.84-.67-3.84-.67l.9-3.3s.98.36,1.65.36Z"/>
  </g>
  <g>
    <g>
      <path class="cls-1" d="m58,31.89c-4.2-4.59-9.56-6.89-16.11-6.9h-.05l-.09,8.78h.14c3.1.03,5.81.96,8.14,2.78,2.36,1.85,3.87,4.6,4.53,8.24h-12.72v7.88h22.12c.24-1.67.36-3.01.36-4.03,0-6.57-2.11-12.15-6.32-16.75Zm-3.8,25.8c-2.57,3.7-7.17,5.55-12.3,5.55v.99s-.09,7.88-.09,7.88h.08c8.63-.02,15.87-3.28,20.28-9.77l-7.97-4.65Zm-12.45-23.92h.09v-8.78l-.09,8.78Z"/>
      <rect class="cls-2" x="33.96" y="44.79" width="7.88" height="7.88"/>
      <rect class="cls-2" x="26.07" y="52.67" width="7.89" height="7.88"/>
      <path class="cls-3" d="m45.53,38.41v2.32h-3.64v-6.87c2.09.54,3.64,2.3,3.64,4.55Z"/>
      <polygon class="cls-3" points="36.44 33.55 36.44 40.73 33.52 40.73 33.52 33.46 36.44 33.55"/>
      <polygon class="cls-3" points="54.56 44.79 45.53 44.79 45.53 40.73 52.64 40.73 54.56 44.79"/>
      <rect class="cls-3" x="41.89" y="40.73" width="3.64" height="4.06"/>
      <rect class="cls-3" x="33.52" y="40.73" width="2.92" height="4.06"/>
      <rect class="cls-3" x="33.17" y="40.73" width=".35" height="4.06"/>
      <path class="cls-3" d="m41.89,33.86v6.87h-5.45v-7.18l4.07.13c.46,0,.91.06,1.33.17.02,0,.04,0,.05.01Z"/>
      <path class="cls-3" d="m41.84,24.99l-.09,8.78h.14v.09s-.03-.01-.05-.01c-.42-.11-.87-.17-1.33-.17l-4.07-.13v-11.34h5.45v2.78h-.05Z"/>
      <rect class="cls-3" x="36.44" y="40.73" width="5.45" height="4.06"/>
      <polygon class="cls-3" points="41.89 64.23 41.81 72.11 41.89 72.11 41.89 75.24 36.44 75.24 36.44 55.56 41.89 55.56 41.89 64.23"/>
    </g>
    <rect class="cls-3" x="36.44" y="52.67" width="5.45" height="2.89"/>
    <rect class="cls-3" x="33.96" y="52.67" width="2.48" height="2.89"/>
    <rect class="cls-3" x="41.89" y="52.67" width="22.99" height="2.89"/>
  </g>
</svg>